<mxfile host="app.diagrams.net" modified="2022-09-26T06:30:38.052Z" agent="5.0 (Windows NT 10.0; Win64; x64) AppleWebKit/537.36 (KHTML, like Gecko) Chrome/105.0.0.0 Safari/537.36" etag="K3cuhYb9DeJCa3VTa7Iv" version="20.3.0" type="github">
  <diagram id="D097ze3Xyb40OmOqtDfN" name="第 1 页">
    <mxGraphModel dx="1038" dy="579" grid="1" gridSize="10" guides="1" tooltips="1" connect="1" arrows="1" fold="1" page="1" pageScale="1" pageWidth="827" pageHeight="1169" math="0" shadow="0">
      <root>
        <mxCell id="0" />
        <mxCell id="1" parent="0" />
        <mxCell id="mp9jH6Wr2fothqe3kAa9-6" value="容器平台" style="swimlane;childLayout=stackLayout;resizeParent=1;resizeParentMax=0;startSize=20;" vertex="1" parent="1">
          <mxGeometry x="100" y="40" width="500" height="430" as="geometry" />
        </mxCell>
        <mxCell id="mp9jH6Wr2fothqe3kAa9-7" value="Dev-Cluster" style="swimlane;startSize=20;" vertex="1" parent="mp9jH6Wr2fothqe3kAa9-6">
          <mxGeometry y="20" width="120" height="410" as="geometry" />
        </mxCell>
        <mxCell id="mp9jH6Wr2fothqe3kAa9-8" value="Test-Cluster" style="swimlane;startSize=20;" vertex="1" parent="mp9jH6Wr2fothqe3kAa9-6">
          <mxGeometry x="120" y="20" width="140" height="410" as="geometry" />
        </mxCell>
        <mxCell id="mp9jH6Wr2fothqe3kAa9-11" value="Node1 For Nacos" style="rounded=0;whiteSpace=wrap;html=1;verticalAlign=bottom;fillColor=#dae8fc;strokeColor=#6c8ebf;" vertex="1" parent="mp9jH6Wr2fothqe3kAa9-8">
          <mxGeometry x="10" y="50" width="120" height="70" as="geometry" />
        </mxCell>
        <mxCell id="mp9jH6Wr2fothqe3kAa9-12" value="Node2 For Nacos" style="rounded=0;whiteSpace=wrap;html=1;verticalAlign=bottom;fillColor=#dae8fc;strokeColor=#6c8ebf;" vertex="1" parent="mp9jH6Wr2fothqe3kAa9-8">
          <mxGeometry x="10" y="140" width="120" height="70" as="geometry" />
        </mxCell>
        <mxCell id="mp9jH6Wr2fothqe3kAa9-15" value="Nacos 1" style="rounded=0;whiteSpace=wrap;html=1;fillColor=#d5e8d4;strokeColor=#82b366;" vertex="1" parent="mp9jH6Wr2fothqe3kAa9-8">
          <mxGeometry x="20" y="60" width="60" height="20" as="geometry" />
        </mxCell>
        <mxCell id="mp9jH6Wr2fothqe3kAa9-17" value="Nacos 2" style="rounded=0;whiteSpace=wrap;html=1;fillColor=#d5e8d4;strokeColor=#82b366;" vertex="1" parent="mp9jH6Wr2fothqe3kAa9-8">
          <mxGeometry x="60" y="75" width="60" height="20" as="geometry" />
        </mxCell>
        <mxCell id="mp9jH6Wr2fothqe3kAa9-16" value="Nacos n" style="rounded=0;whiteSpace=wrap;html=1;fillColor=#d5e8d4;strokeColor=#82b366;" vertex="1" parent="mp9jH6Wr2fothqe3kAa9-8">
          <mxGeometry x="60" y="160" width="60" height="20" as="geometry" />
        </mxCell>
        <mxCell id="mp9jH6Wr2fothqe3kAa9-18" value="Node 3" style="rounded=0;whiteSpace=wrap;html=1;fontColor=#000000;" vertex="1" parent="mp9jH6Wr2fothqe3kAa9-8">
          <mxGeometry x="10" y="240" width="120" height="60" as="geometry" />
        </mxCell>
        <mxCell id="mp9jH6Wr2fothqe3kAa9-19" value="Node N" style="rounded=0;whiteSpace=wrap;html=1;fontColor=#000000;" vertex="1" parent="mp9jH6Wr2fothqe3kAa9-8">
          <mxGeometry x="10" y="320" width="120" height="60" as="geometry" />
        </mxCell>
        <mxCell id="mp9jH6Wr2fothqe3kAa9-9" value="Pre-Cluster" style="swimlane;startSize=20;" vertex="1" parent="mp9jH6Wr2fothqe3kAa9-6">
          <mxGeometry x="260" y="20" width="120" height="410" as="geometry" />
        </mxCell>
        <mxCell id="mp9jH6Wr2fothqe3kAa9-10" value="Prd-Cluster" style="swimlane;startSize=20;" vertex="1" parent="mp9jH6Wr2fothqe3kAa9-6">
          <mxGeometry x="380" y="20" width="120" height="410" as="geometry" />
        </mxCell>
      </root>
    </mxGraphModel>
  </diagram>
</mxfile>
